<svg width="25" height="24" viewBox="0 0 25 24" fill="none" xmlns="http://www.w3.org/2000/svg">
<path d="M8.70002 2H17.1C20.3 2 22.9 4.6 22.9 7.8V16.2C22.9 17.7383 22.289 19.2135 21.2012 20.3012C20.1135 21.3889 18.6383 22 17.1 22H8.70002C5.50002 22 2.90002 19.4 2.90002 16.2V7.8C2.90002 6.26174 3.51109 4.78649 4.59881 3.69878C5.68652 2.61107 7.16177 2 8.70002 2ZM8.50002 4C7.54524 4 6.62957 4.37928 5.95444 5.05442C5.27931 5.72955 4.90002 6.64522 4.90002 7.6V16.4C4.90002 18.39 6.51002 20 8.50002 20H17.3C18.2548 20 19.1705 19.6207 19.8456 18.9456C20.5207 18.2705 20.9 17.3548 20.9 16.4V7.6C20.9 5.61 19.29 4 17.3 4H8.50002ZM18.15 5.5C18.4815 5.5 18.7995 5.6317 19.0339 5.86612C19.2683 6.10054 19.4 6.41848 19.4 6.75C19.4 7.08152 19.2683 7.39946 19.0339 7.63388C18.7995 7.8683 18.4815 8 18.15 8C17.8185 8 17.5006 7.8683 17.2661 7.63388C17.0317 7.39946 16.9 7.08152 16.9 6.75C16.9 6.41848 17.0317 6.10054 17.2661 5.86612C17.5006 5.6317 17.8185 5.5 18.15 5.5ZM12.9 7C14.2261 7 15.4979 7.52678 16.4356 8.46447C17.3732 9.40215 17.9 10.6739 17.9 12C17.9 13.3261 17.3732 14.5979 16.4356 15.5355C15.4979 16.4732 14.2261 17 12.9 17C11.5739 17 10.3022 16.4732 9.36449 15.5355C8.42681 14.5979 7.90002 13.3261 7.90002 12C7.90002 10.6739 8.42681 9.40215 9.36449 8.46447C10.3022 7.52678 11.5739 7 12.9 7ZM12.9 9C12.1044 9 11.3413 9.31607 10.7787 9.87868C10.2161 10.4413 9.90002 11.2044 9.90002 12C9.90002 12.7956 10.2161 13.5587 10.7787 14.1213C11.3413 14.6839 12.1044 15 12.9 15C13.6957 15 14.4587 14.6839 15.0213 14.1213C15.584 13.5587 15.9 12.7956 15.9 12C15.9 11.2044 15.584 10.4413 15.0213 9.87868C14.4587 9.31607 13.6957 9 12.9 9Z" fill="#596D85"/>
</svg>
