<svg width="25" height="24" viewBox="0 0 25 24" fill="none" xmlns="http://www.w3.org/2000/svg">
<path d="M7.84003 5C7.83976 5.53043 7.62879 6.03904 7.25353 6.41392C6.87827 6.78881 6.36946 6.99927 5.83903 6.999C5.30859 6.99874 4.79999 6.78777 4.42511 6.41251C4.05022 6.03725 3.83976 5.52843 3.84003 4.998C3.84029 4.46757 4.05126 3.95897 4.42652 3.58408C4.80178 3.20919 5.31059 2.99874 5.84103 2.999C6.37146 2.99927 6.88006 3.21023 7.25495 3.58549C7.62983 3.96075 7.84029 4.46957 7.84003 5ZM7.90003 8.48H3.90003V21H7.90003V8.48ZM14.22 8.48H10.24V21H14.18V14.43C14.18 10.77 18.95 10.43 18.95 14.43V21H22.9V13.07C22.9 6.9 15.84 7.13 14.18 10.16L14.22 8.48Z" fill="#596D85"/>
</svg>
