<svg width="25" height="24" viewBox="0 0 25 24" fill="none" xmlns="http://www.w3.org/2000/svg">
<g clip-path="url(#clip0_3_41)">
<path d="M8.43902 22.5C17.496 22.5 22.4505 14.9955 22.4505 8.499C22.4505 8.289 22.4505 8.076 22.4415 7.866C23.4061 7.16773 24.2386 6.30323 24.9 5.313C23.999 5.71028 23.0442 5.97211 22.0665 6.09C23.0963 5.47446 23.8676 4.50595 24.237 3.3645C23.2695 3.93769 22.2105 4.34006 21.1065 4.554C20.3643 3.76354 19.3821 3.23988 18.3122 3.06414C17.2422 2.8884 16.1441 3.07038 15.188 3.58191C14.232 4.09343 13.4712 4.90595 13.0237 5.89359C12.5762 6.88124 12.4668 7.9889 12.7125 9.045C10.7546 8.94683 8.83925 8.4382 7.09059 7.55212C5.34193 6.66603 3.79905 5.42227 2.56202 3.9015C1.93403 4.98613 1.74239 6.2691 2.02599 7.4899C2.3096 8.7107 3.04721 9.7778 4.08902 10.4745C3.30833 10.448 2.54481 10.2383 1.86002 9.8625V9.93C1.86137 11.0662 2.25499 12.1671 2.97434 13.0466C3.69368 13.9262 4.69465 14.5303 5.80802 14.757C5.38542 14.8734 4.94887 14.9315 4.51052 14.9295C4.2015 14.9304 3.8931 14.9018 3.58952 14.844C3.9042 15.8221 4.51693 16.6773 5.34189 17.2897C6.16685 17.9022 7.16273 18.2413 8.19002 18.2595C6.44486 19.6302 4.28913 20.3736 2.07002 20.37C1.67901 20.3717 1.28826 20.3491 0.900024 20.3025C3.1523 21.7384 5.76797 22.5008 8.43902 22.5Z" fill="#596D85"/>
</g>
<defs>
<clipPath id="clip0_3_41">
<rect width="24" height="24" fill="white" transform="translate(0.900024)"/>
</clipPath>
</defs>
</svg>
